<svg version="1.1" id="Layer_1" xmlns="http://www.w3.org/2000/svg" xmlns:xlink="http://www.w3.org/1999/xlink" x="0px" y="0px"
	 width="100%" viewBox="0 0 286 349" enable-background="new 0 0 286 349" xml:space="preserve">
<path fill="#FEF9F9" opacity="1.000000" stroke="none" 
	d="
M287.000000,129.000000 
	C287.000000,202.999969 287.000000,276.499939 287.000000,349.999939 
	C191.666733,349.999939 96.333458,349.999939 1.000136,349.999969 
	C1.000091,233.666763 1.000091,117.333534 1.000045,1.000230 
	C96.333199,1.000153 191.666397,1.000153 286.999817,1.000077 
	C287.000000,43.500000 287.000000,86.000000 287.000000,129.000000 
M283.723816,221.944412 
	C283.949310,216.118683 284.366638,210.293106 284.370880,204.467224 
	C284.418182,139.803787 284.401520,75.140289 284.402161,10.476817 
	C284.402161,8.713448 284.402161,6.950078 284.402161,5.175396 
	C190.207764,5.175396 96.673683,5.175396 3.036534,5.175396 
	C2.978688,6.379417 2.904723,7.199206 2.904838,8.018985 
	C2.914259,75.182213 2.743610,142.346527 3.134267,209.507568 
	C3.196549,220.214981 4.720821,231.177307 7.363824,241.565155 
	C31.014490,334.520050 139.898346,377.051422 220.146942,324.568176 
	C256.785034,300.606537 277.786041,266.325378 283.723816,221.944412 
z"/>
<path fill="#ED1D25" opacity="1.000000" stroke="none" 
	d="
M283.644104,222.391937 
	C277.786041,266.325378 256.785034,300.606537 220.146942,324.568176 
	C139.898346,377.051422 31.014490,334.520050 7.363824,241.565155 
	C4.720821,231.177307 3.196549,220.214981 3.134267,209.507568 
	C2.743610,142.346527 2.914259,75.182213 2.904838,8.018985 
	C2.904723,7.199206 2.978688,6.379417 3.036534,5.175396 
	C96.673683,5.175396 190.207764,5.175396 284.402161,5.175396 
	C284.402161,6.950078 284.402161,8.713448 284.402161,10.476817 
	C284.401520,75.140289 284.418182,139.803787 284.370880,204.467224 
	C284.366638,210.293106 283.949310,216.118683 283.644104,222.391937 
M93.564804,220.429855 
	C93.690842,205.520264 93.827072,190.610703 93.903687,175.700867 
	C93.906586,175.136429 93.332413,174.569031 92.956718,173.274460 
	C94.212173,169.609024 96.814217,167.765854 100.602226,168.495667 
	C104.670784,169.279510 106.123154,172.204346 106.095100,176.236237 
	C105.987274,191.734436 105.885452,207.234344 106.007500,222.731842 
	C106.083298,232.355087 106.558105,241.971970 95.360825,246.964340 
	C111.503853,247.283203 126.951561,247.465576 142.390488,247.177338 
	C147.325897,247.085205 152.338593,246.138611 157.142700,244.907150 
	C174.409683,240.480927 191.398987,227.219223 190.001938,202.123978 
	C189.849106,199.378769 189.727310,196.631836 189.593369,193.931061 
	C213.311737,190.945175 228.025146,174.259979 223.720551,154.976074 
	C200.321442,154.976074 176.799225,154.976074 152.561035,154.976074 
	C154.360779,152.812897 156.015884,151.495911 156.773392,149.782150 
	C158.743637,145.324692 162.150558,144.909912 166.466782,144.986542 
	C180.128006,145.229050 193.802444,145.326309 207.460007,144.995285 
	C219.274689,144.708923 230.674927,142.408585 240.159378,134.613846 
	C248.696808,127.597404 253.478500,113.862183 250.464066,104.930214 
	C221.637543,104.930214 192.693069,104.930214 163.534286,104.930214 
	C163.534286,101.514473 163.534286,98.446747 163.534286,94.931671 
	C179.274002,94.931671 194.738419,95.112869 210.195312,94.850960 
	C217.325974,94.730133 224.509872,94.166992 231.547104,93.039581 
	C240.017456,91.682579 247.960037,88.582733 254.376617,82.571991 
	C262.317017,75.133797 264.967865,65.813911 264.303589,55.195007 
	C222.464249,55.195007 181.243179,55.195007 139.269577,55.195007 
	C142.820969,56.680069 145.754517,57.700638 148.494553,59.100071 
	C152.780563,61.289093 155.727600,64.822334 155.696213,69.728279 
	C155.565155,90.212502 156.563324,110.836113 154.494080,131.138168 
	C152.473007,150.967239 139.771362,160.254181 119.500778,157.215225 
	C106.623146,155.284637 101.203491,149.042175 100.911926,135.987854 
	C100.472931,116.332565 100.461098,96.667084 100.344246,77.005486 
	C100.261177,63.028507 101.703789,61.006252 114.655754,56.046700 
	C114.862335,55.967590 114.956337,55.594482 115.214119,55.179489 
	C95.074669,55.179489 75.049103,55.179489 53.974049,55.179489 
	C55.938644,55.903900 56.941833,56.325264 57.975979,56.647182 
	C68.497658,59.922447 71.066818,63.346169 71.069534,74.180550 
	C71.074005,92.012444 70.990669,109.844849 71.105141,127.676003 
	C71.157555,135.840607 72.937927,143.666306 78.438370,149.977325 
	C81.286514,153.245193 84.935822,155.814789 88.570526,159.004700 
	C78.260757,159.004700 68.225464,159.004700 56.704044,159.004700 
	C65.318504,163.083206 70.668159,168.117249 70.701500,176.837067 
	C70.761391,192.502197 70.884262,208.170853 70.597038,223.830978 
	C70.522606,227.889481 69.640388,232.183517 68.054855,235.912552 
	C64.609169,244.016479 54.787163,246.461014 48.630753,240.818619 
	C50.416641,238.929077 52.267548,237.094528 53.977459,235.136826 
	C58.008698,230.521393 58.734871,225.796402 56.187214,221.438354 
	C53.641495,217.083618 48.187263,215.027023 42.678963,216.344879 
	C37.767250,217.519974 34.337841,221.766052 33.894482,227.221237 
	C33.124508,236.695190 37.337917,243.647507 46.130795,247.411682 
	C67.444298,256.535828 89.170097,244.289810 93.564804,220.429855 
M201.469940,248.903519 
	C217.311584,250.946243 231.962189,255.996643 244.649826,266.832520 
	C244.661987,244.452545 222.979462,218.127930 199.163742,211.102036 
	C197.501221,226.869354 188.948593,238.354446 175.768051,247.175476 
	C184.494080,247.749664 192.540100,248.279114 201.469940,248.903519 
z"/>
<path fill="#FEFCFC" opacity="1.000000" stroke="none" 
	d="
M92.962051,221.014664 
	C89.170097,244.289810 67.444298,256.535828 46.130795,247.411682 
	C37.337917,243.647507 33.124508,236.695190 33.894482,227.221237 
	C34.337841,221.766052 37.767250,217.519974 42.678963,216.344879 
	C48.187263,215.027023 53.641495,217.083618 56.187214,221.438354 
	C58.734871,225.796402 58.008698,230.521393 53.977459,235.136826 
	C52.267548,237.094528 50.416641,238.929077 48.630753,240.818619 
	C54.787163,246.461014 64.609169,244.016479 68.054855,235.912552 
	C69.640388,232.183517 70.522606,227.889481 70.597038,223.830978 
	C70.884262,208.170853 70.761391,192.502197 70.701500,176.837067 
	C70.668159,168.117249 65.318504,163.083206 56.704044,159.004700 
	C68.225464,159.004700 78.260757,159.004700 88.570526,159.004700 
	C84.935822,155.814789 81.286514,153.245193 78.438370,149.977325 
	C72.937927,143.666306 71.157555,135.840607 71.105141,127.676003 
	C70.990669,109.844849 71.074005,92.012444 71.069534,74.180550 
	C71.066818,63.346169 68.497658,59.922447 57.975979,56.647182 
	C56.941833,56.325264 55.938644,55.903900 53.974049,55.179489 
	C75.049103,55.179489 95.074669,55.179489 115.214119,55.179489 
	C114.956337,55.594482 114.862335,55.967590 114.655754,56.046700 
	C101.703789,61.006252 100.261177,63.028507 100.344246,77.005486 
	C100.461098,96.667084 100.472931,116.332565 100.911926,135.987854 
	C101.203491,149.042175 106.623146,155.284637 119.500778,157.215225 
	C139.771362,160.254181 152.473007,150.967239 154.494080,131.138168 
	C156.563324,110.836113 155.565155,90.212502 155.696213,69.728279 
	C155.727600,64.822334 152.780563,61.289093 148.494553,59.100071 
	C145.754517,57.700638 142.820969,56.680069 139.269577,55.195007 
	C181.243179,55.195007 222.464249,55.195007 264.303589,55.195007 
	C264.967865,65.813911 262.317017,75.133797 254.376617,82.571991 
	C247.960037,88.582733 240.017456,91.682579 231.547104,93.039581 
	C224.509872,94.166992 217.325974,94.730133 210.195312,94.850960 
	C194.738419,95.112869 179.274002,94.931671 163.534286,94.931671 
	C163.534286,98.446747 163.534286,101.514473 163.534286,104.930214 
	C192.693069,104.930214 221.637543,104.930214 250.464066,104.930214 
	C253.478500,113.862183 248.696808,127.597404 240.159378,134.613846 
	C230.674927,142.408585 219.274689,144.708923 207.460007,144.995285 
	C193.802444,145.326309 180.128006,145.229050 166.466782,144.986542 
	C162.150558,144.909912 158.743637,145.324692 156.773392,149.782150 
	C156.015884,151.495911 154.360779,152.812897 152.561035,154.976074 
	C176.799225,154.976074 200.321442,154.976074 223.720551,154.976074 
	C228.025146,174.259979 213.311737,190.945175 189.593369,193.931061 
	C189.727310,196.631836 189.849106,199.378769 190.001938,202.123978 
	C191.398987,227.219223 174.409683,240.480927 157.142700,244.907150 
	C152.338593,246.138611 147.325897,247.085205 142.390488,247.177338 
	C126.951561,247.465576 111.503853,247.283203 95.360825,246.964340 
	C106.558105,241.971970 106.083298,232.355087 106.007500,222.731842 
	C105.885452,207.234344 105.987274,191.734436 106.095100,176.236237 
	C106.123154,172.204346 104.670784,169.279510 100.602226,168.495667 
	C96.814217,167.765854 94.212173,169.609024 92.869987,174.093750 
	C92.842850,190.280243 92.902451,205.647461 92.962051,221.014664 
M128.077179,208.500000 
	C128.077026,216.161118 128.023148,223.822723 128.092789,231.483200 
	C128.154587,238.280258 131.269638,241.478271 138.078445,241.956726 
	C149.100906,242.731262 157.808273,237.633896 161.726776,227.346008 
	C166.284607,215.379532 166.693695,202.843597 164.165161,190.469925 
	C159.947220,169.828949 146.956909,165.740738 128.077194,169.156586 
	C128.077194,181.894455 128.077194,194.697220 128.077179,208.500000 
z"/>
<path fill="#FDFAFA" opacity="1.000000" stroke="none" 
	d="
M201.028046,248.856049 
	C192.540100,248.279114 184.494080,247.749664 175.768051,247.175476 
	C188.948593,238.354446 197.501221,226.869354 199.163742,211.102036 
	C222.979462,218.127930 244.661987,244.452545 244.649826,266.832520 
	C231.962189,255.996643 217.311584,250.946243 201.028046,248.856049 
z"/>
<path fill="#E81121" opacity="1.000000" stroke="none" 
	d="
M93.263428,220.722260 
	C92.902451,205.647461 92.842850,190.280243 92.905205,174.458023 
	C93.332413,174.569031 93.906586,175.136429 93.903687,175.700867 
	C93.827072,190.610703 93.690842,205.520264 93.263428,220.722260 
z"/>
<path fill="#ED1F27" opacity="1.000000" stroke="none" 
	d="
M128.077179,208.000000 
	C128.077194,194.697220 128.077194,181.894455 128.077194,169.156586 
	C146.956909,165.740738 159.947220,169.828949 164.165161,190.469925 
	C166.693695,202.843597 166.284607,215.379532 161.726776,227.346008 
	C157.808273,237.633896 149.100906,242.731262 138.078445,241.956726 
	C131.269638,241.478271 128.154587,238.280258 128.092789,231.483200 
	C128.023148,223.822723 128.077026,216.161118 128.077179,208.000000 
z"/>
</svg>