<?xml version="1.0" encoding="UTF-8"?>
<!DOCTYPE svg PUBLIC "-//W3C//DTD SVG 1.1//EN" "http://www.w3.org/Graphics/SVG/1.1/DTD/svg11.dtd">
<!-- Creator: CorelDRAW X7 -->
<svg xmlns="http://www.w3.org/2000/svg" xml:space="preserve" width="390mm" height="100mm" version="1.1" style="shape-rendering:geometricPrecision; text-rendering:geometricPrecision; image-rendering:optimizeQuality; fill-rule:evenodd; clip-rule:evenodd"
viewBox="0 0 39000 10000"
 xmlns:xlink="http://www.w3.org/1999/xlink">
 <defs>
  <style type="text/css">
   <![CDATA[
    .fil1 {fill:#5B5B5B}
    .fil0 {fill:#CC3722}
   ]]>
  </style>
 </defs>
 <g id="Warstwa_x0020_1">
  <metadata id="CorelCorpID_0Corel-Layer"/>
  <g id="_635479584">
   <path class="fil0" d="M38160 5531l-237 1132 -2983 0 1200 -5648 1137 0 -966 4515 1849 0 0 1zm-3078 -1l-237 1133 -2983 0 1200 -5648 1137 0 -966 4515 1849 0zm-2671 -3396l-603 2833c-100,462 -350,859 -749,1194 -400,334 -835,502 -1305,502 -394,0 -720,-128 -980,-383 -260,-256 -389,-580 -389,-973 0,-118 10,-231 33,-340l794 -3728 1131 0 -793 3728c-9,42 -13,78 -13,109 0,127 44,234 132,322 88,88 196,132 322,132 158,0 304,-54 437,-162 134,-108 216,-242 248,-401l603 -2833 1132 0zm-4589 2271c90,185 135,366 135,542 0,96 -11,197 -34,305 -76,376 -277,704 -599,986 -324,283 -675,425 -1054,425l-2034 0 237 -1133 2034 0c76,0 144,-37 203,-112 59,-74 88,-152 88,-234 0,-144 -57,-217 -170,-217l-2034 0 245 -1131 2034 0c77,0 143,-39 200,-116 56,-76 84,-153 84,-230 0,-145 -56,-217 -169,-217l-2996 0 244 -1139 2996 0c321,0 581,106 782,319 202,212 303,481 303,806 0,420 -165,802 -495,1146zm-4427 0c-132,619 -465,1150 -1001,1593 -535,444 -1117,665 -1745,665l-1837 0 603 -2827 1135 0 -369 1694 705 0c353,0 675,-138 967,-417 291,-277 436,-592 436,-945 0,-267 -87,-483 -260,-648 -174,-164 -395,-247 -661,-247l-2793 0 244 -1132 2793 0c529,0 966,167 1311,501 346,335 519,766 519,1295 0,163 -16,319 -47,468zm-5275 -569l-542 2555 -1132 0 542 -2555c5,-41 7,-80 7,-116 0,-131 -43,-238 -129,-322 -86,-83 -194,-125 -325,-125 -154,0 -299,57 -434,169 -135,114 -219,245 -251,394l-841 3959 -1125 0 841 -3959c99,-461 349,-859 749,-1194 400,-334 835,-501 1305,-501 398,0 726,125 983,376 258,251 386,573 386,966 0,126 -10,244 -34,353zm-4230 2827l-4522 0 1682 -2827 1179 0 -1071 1694 1426 0 -748 -4291 1152 0 902 5424zm-6657 -2827l-603 2827 -1132 0 603 -2827 1132 0zm2312 -278c-132,542 -475,926 -1031,1152l705 3085 -1272 0 -619 -2828 244 -1131 563 0c81,0 151,-38 210,-112 58,-75 88,-155 88,-241 0,-140 -61,-210 -183,-210l-2597 0 244 -1132 2597 0c317,0 577,104 783,312 206,207 308,470 308,786 0,100 -13,205 -40,319zm-4875 847c91,185 136,366 136,542 0,96 -12,197 -34,305 -77,376 -277,704 -599,986 -324,283 -676,425 -1055,425l-2034 0 238 -1133 2033 0c77,0 145,-37 204,-112 58,-74 87,-152 87,-234 0,-144 -56,-217 -169,-217l-2034 0 244 -1131 2034 0c77,0 144,-39 200,-116 57,-76 85,-153 85,-230 0,-145 -56,-217 -170,-217l-2996 0 244 -1139 2996 0c322,0 583,106 784,319 201,212 301,481 301,806 0,420 -165,802 -495,1146z"/>
   <path class="fil1" d="M24866 7462c135,0 252,23 351,68 100,44 177,108 231,191 54,84 81,181 81,294 0,112 -27,209 -81,292 -54,82 -131,146 -231,190 -99,45 -216,68 -351,68l-260 0 0 390 -423 0 0 -1493 683 0zm-26 770c87,0 152,-19 196,-56 44,-38 66,-92 66,-161 0,-70 -22,-124 -66,-162 -44,-39 -109,-58 -196,-58l-234 0 0 437 234 0zm1667 753c-158,0 -299,-34 -425,-101 -126,-66 -225,-159 -297,-277 -71,-118 -107,-251 -107,-398 0,-148 36,-281 107,-399 72,-118 171,-210 297,-277 126,-67 267,-100 425,-100 158,0 300,33 425,100 126,67 225,159 297,277 72,118 107,251 107,399 0,147 -35,280 -107,398 -72,118 -171,211 -297,277 -125,67 -267,101 -425,101zm0 -350c75,0 144,-18 205,-53 61,-36 109,-86 145,-151 35,-64 53,-139 53,-222 0,-84 -18,-159 -53,-223 -36,-65 -84,-115 -145,-150 -61,-36 -130,-54 -205,-54 -75,0 -143,18 -205,54 -61,35 -109,85 -145,150 -35,64 -53,139 -53,223 0,83 18,158 53,222 36,65 84,115 145,151 62,35 130,53 205,53zm1051 -1173l422 0 0 1158 712 0 0 335 -1134 0 0 -1493zm1821 1523c-121,0 -238,-15 -352,-45 -114,-30 -206,-70 -277,-120l138 -311c67,44 145,80 233,107 88,27 175,40 260,40 162,0 243,-40 243,-121 0,-43 -23,-74 -69,-95 -47,-21 -121,-42 -223,-65 -112,-24 -206,-50 -282,-78 -75,-28 -140,-72 -194,-133 -54,-61 -81,-144 -81,-247 0,-91 25,-174 75,-247 50,-73 124,-131 223,-173 99,-43 220,-64 363,-64 98,0 195,11 290,33 95,22 179,54 252,97l-130 313c-142,-77 -280,-115 -414,-115 -84,0 -145,12 -183,37 -39,25 -58,57 -58,97 0,40 23,70 68,90 46,20 119,40 220,62 114,24 208,50 283,77 74,28 139,72 194,133 54,60 82,142 82,246 0,89 -25,170 -75,243 -50,72 -124,130 -224,174 -99,43 -220,65 -362,65zm1430 -572l-158 169 0 373 -417 0 0 -1493 417 0 0 621 578 -621 465 0 -610 661 642 832 -490 0 -427 -542zm1957 252l-631 0 -117 290 -431 0 659 -1493 416 0 661 1493 -440 0 -117 -290zm-123 -311l-192 -478 -192 478 384 0zm1944 631c-121,0 -238,-15 -352,-45 -114,-30 -206,-70 -277,-120l138 -311c67,44 145,80 233,107 88,27 175,40 260,40 162,0 243,-40 243,-121 0,-43 -23,-74 -69,-95 -46,-21 -121,-42 -223,-65 -112,-24 -206,-50 -281,-78 -76,-28 -140,-72 -194,-133 -54,-61 -81,-144 -81,-247 0,-91 24,-174 74,-247 50,-73 124,-131 223,-173 99,-43 220,-64 363,-64 98,0 195,11 290,33 96,22 179,54 252,97l-130 313c-142,-77 -280,-115 -414,-115 -84,0 -145,12 -183,37 -38,25 -58,57 -58,97 0,40 23,70 69,90 45,20 118,40 219,62 114,24 208,50 283,77 74,28 139,72 194,133 54,60 82,142 82,246 0,89 -25,170 -75,243 -50,72 -124,130 -224,174 -99,43 -220,65 -362,65zm2458 -320l-631 0 -117 290 -431 0 659 -1493 415 0 661 1493 -439 0 -117 -290zm-124 -311l-192 -478 -192 478 384 0zm-1328 620c-68,0 -126,-23 -173,-68 -47,-46 -70,-103 -70,-173 0,-71 23,-129 69,-173 47,-44 104,-66 174,-66 71,0 129,22 175,66 45,44 68,102 68,173 0,70 -23,127 -69,173 -46,45 -104,68 -174,68zm2279 0c-68,0 -126,-23 -173,-68 -47,-46 -70,-103 -70,-173 0,-71 23,-129 69,-173 46,-44 104,-66 174,-66 71,0 129,22 175,66 45,44 68,102 68,173 0,70 -23,127 -69,173 -46,45 -104,68 -174,68z"/>
  </g>
 </g>
</svg>
