<?xml version="1.0" encoding="UTF-8" standalone="no"?>
<!-- Created with Inkscape (http://www.inkscape.org/) -->

<svg
   xmlns:dc="http://purl.org/dc/elements/1.1/"
   xmlns:cc="http://creativecommons.org/ns#"
   xmlns:rdf="http://www.w3.org/1999/02/22-rdf-syntax-ns#"
   xmlns:svg="http://www.w3.org/2000/svg"
   xmlns="http://www.w3.org/2000/svg"
   xmlns:sodipodi="http://sodipodi.sourceforge.net/DTD/sodipodi-0.dtd"
   xmlns:inkscape="http://www.inkscape.org/namespaces/inkscape"
   version="1.1"
   width="151"
   height="47"
   viewBox="0 0 151 47"
   id="svg2"
   xml:space="preserve"
   inkscape:version="0.48.4 r9939"
   sodipodi:docname="Logo_REMONDIS_Claim_E_HKS13_ZW.svg"><sodipodi:namedview
     pagecolor="#ffffff"
     bordercolor="#666666"
     borderopacity="1"
     objecttolerance="10"
     gridtolerance="10"
     guidetolerance="10"
     inkscape:pageopacity="0"
     inkscape:pageshadow="2"
     inkscape:window-width="1920"
     inkscape:window-height="1028"
     id="namedview3059"
     showgrid="false"
     inkscape:zoom="5.8278146"
     inkscape:cx="75.5"
     inkscape:cy="-3.9545455"
     inkscape:window-x="-8"
     inkscape:window-y="-8"
     inkscape:window-maximized="1"
     inkscape:current-layer="svg2" /><metadata
     id="metadata8"><rdf:RDF><cc:Work
         rdf:about=""><dc:format>image/svg+xml</dc:format><dc:type
           rdf:resource="http://purl.org/dc/dcmitype/StillImage" /><dc:title></dc:title></cc:Work></rdf:RDF></metadata><defs
     id="defs6" /><g
     transform="matrix(0.96853232,0,0,-0.96510826,0,47)"
     id="g10"><g
       transform="scale(0.1,0.1)"
       id="g12"><path
         d="m 0,175.176 1559.06,0 0,311.816 -1559.06,0 0,-311.816 z"
         inkscape:connector-curvature="0"
         id="path14"
         style="fill:#ed1b29;fill-opacity:1;fill-rule:nonzero;stroke:none" /><path
         d="m 1485.7,449.824 c -22.09,0 -40.07,-17.988 -40.07,-40.097 0,-22.11 17.98,-40.079 40.07,-40.079 22.11,0 40.1,17.969 40.1,40.079 0,22.109 -17.99,40.097 -40.1,40.097"
         inkscape:connector-curvature="0"
         id="path16"
         style="fill:#ffffff;fill-opacity:1;fill-rule:nonzero;stroke:none" /><path
         d="m 1485.7,439.746 c -16.54,0 -30,-13.457 -30,-30.019 0,-16.543 13.46,-30.02 30,-30.02 16.57,0 30.02,13.477 30.02,30.02 0,16.562 -13.45,30.019 -30.02,30.019"
         inkscape:connector-curvature="0"
         id="path18"
         style="fill:#ed1b29;fill-opacity:1;fill-rule:nonzero;stroke:none" /><path
         d="m 1482.68,406.211 2.05,0 c 6.13,0 5.7,-3.848 5.7,-8.398 0,-2.481 -0.22,-5.059 0.84,-7.383 l 7.81,0 c -0.74,1.582 -0.9,8.769 -0.9,11.191 0,6.856 -5.17,7.285 -6.91,7.5 l 0,0.098 c 5.18,0.84 7.07,4.492 7.07,9.336 0,6.504 -3.48,9.98 -8.91,9.98 l -14.72,0 0,-38.105 7.97,0 0,15.781 z m 0,16.465 3.53,0 c 2.54,0 4.06,-1.367 4.06,-5.02 0,-2.422 -0.89,-5.586 -4.06,-5.586 l -3.53,0 0,10.606"
         inkscape:connector-curvature="0"
         id="path20"
         style="fill:#ffffff;fill-opacity:1;fill-rule:evenodd;stroke:none" /><path
         d="m 91.5625,310.723 12.2075,0 c 36.289,0 33.789,-22.832 33.789,-49.746 0,-14.707 -1.25,-30.02 5,-43.789 l 46.308,0 c -4.394,9.375 -5.332,51.933 -5.332,66.328 0,40.664 -30.644,43.164 -40.976,44.414 l 0,0.625 c 30.664,5 41.914,26.601 41.914,55.39 0,38.477 -20.645,59.121 -52.871,59.121 l -87.2856,0 0,-225.878 47.2461,0 0,93.535 z m 0,97.617 20.9575,0 c 15.019,0 24.101,-8.145 24.101,-29.727 0,-14.394 -5.332,-33.164 -24.101,-33.164 l -20.9575,0 0,62.891"
         inkscape:connector-curvature="0"
         id="path22"
         style="fill:#ffffff;fill-opacity:1;fill-rule:evenodd;stroke:none" /><path
         d="m 343.438,217.188 0,34.726 -78.516,0 0,66.016 70.078,0 0,34.726 -70.078,0 0,55.684 76.016,0 0,34.726 -123.262,0 0,-225.878 125.762,0 0,0"
         inkscape:connector-curvature="0"
         id="path24"
         style="fill:#ffffff;fill-opacity:1;fill-rule:nonzero;stroke:none" /><path
         d="m 419.746,217.188 0,174.257 0.625,0 41.309,-174.257 45.039,0 43.496,174.257 0.625,0 0,-174.257 45.996,0 0,225.878 -73.535,0 -37.539,-153.613 -0.625,0 -35.352,153.613 -76.015,0 0,-225.878 45.976,0 0,0"
         inkscape:connector-curvature="0"
         id="path26"
         style="fill:#ffffff;fill-opacity:1;fill-rule:nonzero;stroke:none" /><path
         d="m 704.785,213.848 c 77.91,0 77.91,57.558 77.91,116.699 0,59.766 0,116.699 -77.91,116.699 -77.89,0 -77.89,-56.933 -77.89,-116.699 0,-59.141 0,-116.699 77.89,-116.699 l 0,0 z m 0,33.789 c -26.582,0 -30.039,25.039 -30.039,82.91 0,57.871 3.457,82.91 30.039,82.91 26.602,0 30.039,-25.039 30.039,-82.91 0,-57.871 -3.437,-82.91 -30.039,-82.91 l 0,0"
         inkscape:connector-curvature="0"
         id="path28"
         style="fill:#ffffff;fill-opacity:1;fill-rule:evenodd;stroke:none" /><path
         d="m 857.012,217.188 0,165.175 0.625,0 61.621,-165.175 62.265,0 0,225.878 -44.121,0 0,-156.425 -0.625,0 -60.058,156.425 -63.828,0 0,-225.878 44.121,0 0,0"
         inkscape:connector-curvature="0"
         id="path30"
         style="fill:#ffffff;fill-opacity:1;fill-rule:nonzero;stroke:none" /><path
         d="m 1018.38,217.188 76.95,0 c 80.72,0 75.41,79.453 75.41,114.179 0,70.391 -11.58,111.699 -73.53,111.699 l -78.83,0 0,-225.878 z m 47.25,191.152 24.39,0 c 32.85,0 32.85,-36.602 32.85,-78.223 0,-56.621 -5.62,-78.203 -34.41,-78.203 l -22.83,0 0,156.426"
         inkscape:connector-curvature="0"
         id="path32"
         style="fill:#ffffff;fill-opacity:1;fill-rule:evenodd;stroke:none" /><path
         d="m 1248.38,217.188 0,225.878 -47.23,0 0,-225.878 47.23,0 0,0"
         inkscape:connector-curvature="0"
         id="path34"
         style="fill:#ffffff;fill-opacity:1;fill-rule:nonzero;stroke:none" /><path
         d="m 1414.65,278.809 c 0,71.015 -88.58,67.265 -88.58,110.136 0,15.645 9.07,24.082 24.4,24.082 19.08,0 21.89,-17.207 21.89,-34.101 l 39.48,0 c 3.12,47.246 -13.19,67.89 -59.18,67.89 -57.56,0 -74.46,-28.164 -74.46,-63.515 0,-67.266 95.1,-69.766 95.1,-110.43 0,-15.332 -7.81,-25.664 -23.77,-25.664 -25.98,0 -26.91,18.164 -26.91,39.746 l -47.23,0 c -2.5,-39.101 8.44,-73.515 66.93,-73.515 35.98,0 72.33,6.875 72.33,65.371 l 0,0"
         inkscape:connector-curvature="0"
         id="path36"
         style="fill:#ffffff;fill-opacity:1;fill-rule:nonzero;stroke:none" /><path
         d="m 0,88.0977 11.4922,0 14.25,-70.7344 0.2539,0 15.625,70.7344 13.9922,0 15.6172,-70.7344 0.2539,0 15.2422,70.7344 10.5,0 -18.9961,-87.230512 -12.9961,0 -16.4961,74.738312 -0.2539,0 -16.4922,-74.738312 -13,0 L 0,88.0977"
         inkscape:connector-curvature="0"
         id="path38"
         style="fill:#231f20;fill-opacity:1;fill-rule:nonzero;stroke:none" /><path
         d="m 145.742,8.99219 c 11.492,0 21.238,9.50391 21.238,36.35941 0,17.625 -5.496,34.6289 -20.242,34.6289 -11.496,0 -21.242,-9.5039 -21.242,-36.3672 0,-17.6289 5.5,-34.62111 20.246,-34.62111 z m 0.996,79.98051 c 19.375,0 31.739,-16.6211 31.739,-43.6211 C 178.477,15.2344 166.355,0 145.742,0 c -19.375,0 -31.75,16.6211 -31.75,43.6133 0,30.1172 12.129,45.3594 32.746,45.3594"
         inkscape:connector-curvature="0"
         id="path40"
         style="fill:#231f20;fill-opacity:1;fill-rule:nonzero;stroke:none" /><path
         d="m 214.109,49.3555 8.508,0 c 11.746,0 16.238,7.7539 16.238,15.3711 0,9.7461 -6.367,14.375 -15.996,14.375 l -8.75,0 0,-29.7461 z m -10.996,38.7422 22.375,0 c 9.246,0 14.375,-2.25 18.367,-6 4.504,-4.2461 6.504,-10.2422 6.504,-16.6211 0,-9.2461 -4.375,-18.1133 -17.246,-20.8672 l 0,-0.2539 c 5.246,-0.9961 7.746,-3.4961 9.492,-8.4961 l 12.25,-34.992212 -11.867,0 -10,29.492212 c -2.5,7.2578 -5.625,10 -13.879,10 l -5,0 0,-39.492212 -10.996,0 0,87.230512"
         inkscape:connector-curvature="0"
         id="path42"
         style="fill:#231f20;fill-opacity:1;fill-rule:nonzero;stroke:none" /><path
         d="m 278.867,88.0977 11.004,0 0,-37.8633 0.246,0 28.867,37.8633 13.125,0 -32.746,-41.2422 35.492,-45.988312 -14.242,0 -30.496,42.238312 -0.246,0 0,-42.238312 -11.004,0 0,87.230512"
         inkscape:connector-curvature="0"
         id="path44"
         style="fill:#231f20;fill-opacity:1;fill-rule:nonzero;stroke:none" /><path
         d="m 357.117,0.867188 10.9961,0 0,87.2305 -10.9961,0 0,-87.2305 z"
         inkscape:connector-curvature="0"
         id="path46"
         style="fill:#231f20;fill-opacity:1;fill-rule:nonzero;stroke:none" /><path
         d="m 399.492,88.0977 13.621,0 32.871,-71.9844 0.246,0 0,71.9844 10.5,0 0,-87.230512 -13.625,0 -32.863,71.484412 -0.254,0 0,-71.484412 -10.496,0 0,87.230512"
         inkscape:connector-curvature="0"
         id="path48"
         style="fill:#231f20;fill-opacity:1;fill-rule:nonzero;stroke:none" /><path
         d="M 542.852,4.49219 C 537.734,2.61719 528.984,0 521.23,0 c -27.617,0 -39.238,20.9961 -39.238,44.6094 0,27.2461 15.867,44.3633 38.613,44.3633 7.5,0 14.5,-1.0039 20.5,-3.875 l 0,-10.9961 c -6.625,3.3789 -13.996,5.3711 -20.375,5.3711 -14.246,0 -27.234,-11.3672 -27.234,-32.6172 0,-22.4922 8.992,-37.36331 27.988,-37.36331 3.496,0 7.996,0.87891 10.871,2.37111 l 0,27.4922 -14.621,0 0,9.5 25.118,0 0,-44.36331"
         inkscape:connector-curvature="0"
         id="path50"
         style="fill:#231f20;fill-opacity:1;fill-rule:nonzero;stroke:none" /><path
         d="m 616.367,88.0977 38.992,0 0,-9.5039 -27.996,0 0,-27.7344 26.621,0 0,-9.5039 -26.621,0 0,-40.488312 -10.996,0 0,87.230512"
         inkscape:connector-curvature="0"
         id="path52"
         style="fill:#231f20;fill-opacity:1;fill-rule:nonzero;stroke:none" /><path
         d="m 707.363,8.99219 c 11.492,0 21.242,9.50391 21.242,36.35941 0,17.625 -5.5,34.6289 -20.246,34.6289 -11.496,0 -21.242,-9.5039 -21.242,-36.3672 0,-17.6289 5.5,-34.62111 20.246,-34.62111 z m 0.996,79.98051 c 19.375,0 31.739,-16.6211 31.739,-43.6211 C 740.098,15.2344 727.98,0 707.363,0 c -19.375,0 -31.75,16.6211 -31.75,43.6133 0,30.1172 12.129,45.3594 32.746,45.3594"
         inkscape:connector-curvature="0"
         id="path54"
         style="fill:#231f20;fill-opacity:1;fill-rule:nonzero;stroke:none" /><path
         d="m 775.105,49.3555 8.508,0 c 11.746,0 16.242,7.7539 16.242,15.3711 0,9.7461 -6.371,14.375 -16,14.375 l -8.75,0 0,-29.7461 z m -10.996,38.7422 22.375,0 c 9.246,0 14.375,-2.25 18.371,-6 4.5,-4.2461 6.5,-10.2422 6.5,-16.6211 0,-9.2461 -4.375,-18.1133 -17.246,-20.8672 l 0,-0.2539 c 5.246,-0.9961 7.746,-3.4961 9.496,-8.4961 l 12.247,-34.992212 -11.868,0 -10,29.492212 c -2.5,7.2578 -5.625,10 -13.879,10 l -5,0 0,-39.492212 -10.996,0 0,87.230512"
         inkscape:connector-curvature="0"
         id="path56"
         style="fill:#231f20;fill-opacity:1;fill-rule:nonzero;stroke:none" /><path
         d="m 889.004,78.5938 -20,0 0,9.5039 50.984,0 0,-9.5039 -19.988,0 0,-77.726612 -10.996,0 0,77.726612"
         inkscape:connector-curvature="0"
         id="path58"
         style="fill:#231f20;fill-opacity:1;fill-rule:nonzero;stroke:none" /><path
         d="m 943.992,88.0977 10.996,0 0,-37.2383 30.5,0 0,37.2383 10.996,0 0,-87.230512 -10.996,0 0,40.488312 -30.5,0 0,-40.488312 -10.996,0 0,87.230512"
         inkscape:connector-curvature="0"
         id="path60"
         style="fill:#231f20;fill-opacity:1;fill-rule:nonzero;stroke:none" /><path
         d="m 1027.87,88.0977 40.62,0 0,-9.5039 -29.62,0 0,-27.7344 28.25,0 0,-9.5039 -28.25,0 0,-30.9844 31.25,0 0,-9.503912 -42.25,0 0,87.230512"
         inkscape:connector-curvature="0"
         id="path62"
         style="fill:#231f20;fill-opacity:1;fill-rule:nonzero;stroke:none" /><path
         d="m 1139.99,88.0977 38.99,0 0,-9.5039 -27.99,0 0,-27.7344 26.62,0 0,-9.5039 -26.62,0 0,-40.488312 -11,0 0,87.230512"
         inkscape:connector-curvature="0"
         id="path64"
         style="fill:#231f20;fill-opacity:1;fill-rule:nonzero;stroke:none" /><path
         d="m 1260.11,32.9883 c 0,-8.625 -0.5,-13.3789 -3.5,-19.4922 C 1252.99,6.25 1245.36,0 1232.74,0 c -12.62,0 -20.24,6.25 -23.86,13.4961 -3,6.1133 -3.51,10.8672 -3.51,19.4922 l 0,55.1094 11,0 0,-56.7305 c 0,-13.6328 6,-22.37501 16.37,-22.37501 10.38,0 16.37,8.74221 16.37,22.37501 l 0,56.7305 11,0 0,-55.1094"
         inkscape:connector-curvature="0"
         id="path66"
         style="fill:#231f20;fill-opacity:1;fill-rule:nonzero;stroke:none" /><path
         d="m 1302.66,78.5938 -20,0 0,9.5039 50.98,0 0,-9.5039 -19.99,0 0,-77.726612 -10.99,0 0,77.726612"
         inkscape:connector-curvature="0"
         id="path68"
         style="fill:#231f20;fill-opacity:1;fill-rule:nonzero;stroke:none" /><path
         d="m 1410.92,32.9883 c 0,-8.625 -0.5,-13.3789 -3.5,-19.4922 C 1403.8,6.25 1396.17,0 1383.55,0 c -12.62,0 -20.24,6.25 -23.86,13.4961 -3,6.1133 -3.51,10.8672 -3.51,19.4922 l 0,55.1094 11,0 0,-56.7305 c 0,-13.6328 6,-22.37501 16.37,-22.37501 10.38,0 16.37,8.74221 16.37,22.37501 l 0,56.7305 11,0 0,-55.1094"
         inkscape:connector-curvature="0"
         id="path70"
         style="fill:#231f20;fill-opacity:1;fill-rule:nonzero;stroke:none" /><path
         d="m 1450.8,49.3555 8.51,0 c 11.74,0 16.24,7.7539 16.24,15.3711 0,9.7461 -6.37,14.375 -16,14.375 l -8.75,0 0,-29.7461 z m -11,38.7422 22.38,0 c 9.25,0 14.37,-2.25 18.37,-6 4.5,-4.2461 6.5,-10.2422 6.5,-16.6211 0,-9.2461 -4.37,-18.1133 -17.25,-20.8672 l 0,-0.2539 c 5.25,-0.9961 7.75,-3.4961 9.5,-8.4961 l 12.24,-34.992212 -11.86,0 -10,29.492212 c -2.5,7.2578 -5.63,10 -13.88,10 l -5,0 0,-39.492212 -11,0 0,87.230512"
         inkscape:connector-curvature="0"
         id="path72"
         style="fill:#231f20;fill-opacity:1;fill-rule:nonzero;stroke:none" /><path
         d="m 1516.81,88.0977 40.61,0 0,-9.5039 -29.62,0 0,-27.7344 28.25,0 0,-9.5039 -28.25,0 0,-30.9844 31.25,0 0,-9.503912 -42.24,0 0,87.230512"
         inkscape:connector-curvature="0"
         id="path74"
         style="fill:#231f20;fill-opacity:1;fill-rule:nonzero;stroke:none" /></g></g></svg>